Patient4_TMGait_0pt6_01_right_47_EMG.mot
version=1
nRows=13
nColumns=33
inDegrees=no
endheader
time	1LAddLong	2LGlutMax	3LGlutMed	4LIliopsoas	5LSemiMemb	6LBicFemLong	7LRecFem	8LVastMed	9LVastLat	10LGasMed	11LTibAnt	12lTibPost	13LPeroneusLong	14LSol	15LExtDigLong	16LFlexDigLong	17RAddLong	18RGlutMax	19RGlutMed	20RIliopsoas	21RSemiMemb	22RBicFemLong	23RRecFem	24RVastMed	25RVastLat	26RGasMed	27RTibAnt	28RTibPost	29RPeroneusLong	30RSol	31RExtDigLong	32RFlexDigLong
56.6	-0.012054	-0.12283	-0.092163	0.032654	-0.010681	-0.058746	0.14435	-0.006256	0.048676	0.047913	-0.048981	0.019684	-0.21744	0.040283	0.029907	0.005493	-0.016022	-0.37247	-0.099487	-0.10346	0.027161	0.026855	0.20676	-0.03891	-0.013885	-0.003967	0.57922	-0.003204	-0.25574	-0.10376	-0.000153	-0.002899
56.601	-0.00885	-0.1535	0.014954	0.019836	-0.012665	-0.054779	0.14725	0.002441	0.047913	0.048676	-0.036163	0.011749	-0.097046	0.072021	0.074615	0.008545	-0.03479	-0.36652	-0.10757	-0.15137	0.035706	0.047913	0.18158	0.048523	-0.036774	-0.011139	0.17868	-0.002747	0.00412	-0.058594	-0.00061	-0.011749
56.602	-0.00473	-0.15549	0.046539	-0.009766	-0.022583	0.002747	0.15213	0.007629	0.047913	0.019684	0.001068	0.023804	0.021667	0.062256	0.075073	0.011292	-0.019379	-0.36713	-0.045471	-0.21362	0.018005	0.029755	0.1889	0.032196	-0.021515	0.003967	-0.27237	-0.003204	0.7161	-0.11795	-0.000916	-0.001221
56.603	-0.00824	-0.15671	0.037842	-0.013275	-0.026093	-0.013733	0.16861	0.005798	0.034332	0.007782	0.074005	0.014191	0.024261	-0.056305	0.010986	0.004272	-0.021667	-0.30319	-0.025482	-0.12741	-0.005035	0.000763	0.23163	0.024719	-0.021057	0.004578	-1.611	-0.003662	0.70084	-0.12772	-0.00061	-0.00473
56.604	-0.016174	-0.15427	0.015869	0.001068	0.005341	-0.027008	0.15411	0.007172	0.020599	-0.023956	0.077515	0.020599	-0.40497	-0.065155	-0.005035	0.012512	-0.009003	-0.26779	0.030365	0.040131	-0.030365	0.00885	0.30868	-0.082092	-0.045624	-0.015411	-0.76111	-0.002594	0.053558	-0.11566	0.01236	-0.015259
56.605	-0.003357	-0.17364	-0.024414	-0.002899	0.000153	0.016174	0.1535	0.008087	-0.007935	-0.06134	0.044861	0.035858	-0.76279	0.12848	0.005798	0.007629	-0.021973	-0.27542	-0.049896	0.002747	-0.024719	0.004883	0.29785	-0.063477	-0.032959	-0.011749	0.22598	0	-0.20905	-0.068359	0.003357	-0.001831
56.606	-0.017548	-0.20004	0.026703	0.007019	-0.005646	0.020447	0.14847	0.01358	-0.019073	-0.11322	0.032806	0.019226	0.003967	0.28015	-0.070953	0.001526	-0.020599	-0.30853	-0.088959	-0.095978	-0.023193	0.006409	0.30228	-0.15808	-0.029144	-0.011902	0.50003	-0.007172	-0.059662	0.012512	0.007629	-0.010223
56.607	-0.01297	-0.17746	-0.081177	-0.010834	0.002136	-0.041809	0.10529	0.013123	-0.008087	-0.044861	0.049438	0.028534	0.56717	0.31998	-0.055389	0.011902	-0.015564	-0.31448	-0.019989	-0.085907	0.004272	0.032349	0.27222	-0.16159	-0.018158	-0.014496	0.029755	-0.001678	0.21484	-0.061951	-0.000916	-0.011139
56.608	-0.000763	-0.23544	-0.23361	0.002136	0.008392	-0.076294	0.11459	0.015106	-0.022278	-0.022125	0.039673	0.022583	0.48035	0.23102	-0.082245	0.001068	0.00473	-0.27191	0.086975	-0.001373	0.001221	0.047913	0.30762	-0.16342	-0.018005	-0.013885	-0.24384	-0.008698	0.16068	-0.016632	-0.000458	-0.006714
56.609	-0.002594	-0.23514	-0.26871	0.008087	-0.006104	-0.048218	0.13886	0.01297	-0.033875	0.016327	0.013123	0.019989	0.28244	0.085144	-0.11627	-0.005646	0.024109	-0.28168	0.007782	0.000916	0.020599	0.046539	0.30563	-0.10361	-0.023956	-0.016174	-0.24948	-0.00885	-0.22278	0.010681	0.001526	-0.00061
56.61	-0.006256	-0.23483	-0.14328	0.023193	-0.013428	-0.005493	0.14343	0.017548	-0.014496	0.0177	-0.037537	0.019073	-0.28931	0.038757	0.021973	0.000458	0.010986	-0.25925	0.046387	0.016937	0.031891	0.049133	0.2681	-0.06424	-0.023346	-0.008392	-0.22553	-0.010223	-0.37857	0.009918	0.005493	-0.007324
56.611	-0.008698	-0.21133	0.068665	0.026855	-0.030823	0.046387	0.17441	0.012817	0.015717	0.031433	-0.055847	0.02243	-0.46249	-0.006409	0.04364	0.00351	0.006256	-0.31509	-0.039825	0.055695	0.033569	0.034485	0.20142	-0.026093	-0.01297	-0.000458	-0.24094	-0.00351	-0.14618	-0.10574	0.001373	-0.014343
56.612	-0.003357	-0.20187	0.01297	0.007324	-0.048065	0.040588	0.20462	0.016785	0.016632	0.015564	-0.058289	0.018768	-0.17975	0.04303	0.11292	0.012817	0.031433	-0.28	0.11902	0.059814	0.013275	0.010376	0.10025	-0.00946	-0.024109	0.006866	-0.51926	-0.001984	0.17761	-0.12909	0.004883	-0.002136
